# xmcd
#
# Track frame offsets: 
#        150
#        20959
#        41822
#        55566
#        82083
#        108852
#        136390
#        158300
#        184396
#        202635
#        228308
#        247040
#        270531
#        290981
#        310437
#
# Disc length: 4450 seconds
#
# Revision: 5
# Processed by: cddbd v1.5.2PL0 Copyright (c) Steve Scherf et al.
# Submitted via: ExactAudioCopy v1.3
#
DISCID=d411600f
DTITLE=Tolkien, J.R.R. - Die Kinder Hurins (4\\7)
DYEAR=2008
DGENRE=Hörbuch
TTITLE0=44 - Von dem Zwerg Mim 1
TTITLE1=45 - Von dem Zwerg Mim 2
TTITLE2=46 - Von dem Zwerg Mim 3
TTITLE3=47 - Von dem Zwerg Mim 4
TTITLE4=48 - Von dem Zwerg Mim 5
TTITLE5=49 - Von dem Zwerg Mim 6
TTITLE6=50 - Von dem Zwerg Mim 7
TTITLE7=51 - Von dem Zwerg Mim 8
TTITLE8=52 - Das Land von Bogen und Helm 1
TTITLE9=53 - Das Land von Bogen und Helm 2
TTITLE10=54 - Das Land von Bogen und Helm 3
TTITLE11=55 - Das Land von Bogen und Helm 4
TTITLE12=56 - Belegs Tod 1
TTITLE13=57 - Belegs Tod 2
TTITLE14=58 - Belegs Tod 3
EXTD=gelesen von Gert Heidenreich YEAR: 2008
EXTT0=
EXTT1=
EXTT2=
EXTT3=
EXTT4=
EXTT5=
EXTT6=
EXTT7=
EXTT8=
EXTT9=
EXTT10=
EXTT11=
EXTT12=
EXTT13=
EXTT14=
PLAYORDER=
